<svg width="115" height="20" viewBox="0 0 115 20" xmlns="http://www.w3.org/2000/svg">
    <path d="M13.3578 0.00146484L19.6368 19.7167H16.1045L9.8188 0.00146484H13.3578ZM0 19.7167H3.53309L9.8188 0.00146484H6.27732L0 19.7167ZM34.4548 12.572C34.4548 16.5715 32.3483 20.0006 28.4779 20.0006C26.3152 20.0006 24.6645 18.6863 23.9814 16.7148H23.8975V19.7167H20.8511V0.00146484H23.8958V8.4015H23.9797C24.6628 6.42998 26.3136 5.14427 28.4762 5.14427C32.2627 5.1409 34.4548 8.57169 34.4548 12.572ZM31.1818 12.572C31.1818 9.51448 29.8441 7.45786 27.4817 7.45786C25.0917 7.45786 23.7825 9.51448 23.7825 12.572C23.7825 15.6001 25.0917 17.6862 27.4817 17.6862C29.8441 17.6862 31.1818 15.6001 31.1818 12.572ZM43.2732 5.1409C41.1953 5.1409 39.7158 6.22608 39.1183 8.22625H39.0612V5.42905H36.0442V19.7167H39.1493V11.1431C39.1493 8.80086 40.0892 7.48651 41.9959 7.48651C43.9026 7.48651 44.8417 8.68627 44.8417 11.3436V19.7167H47.9468V10.4286C47.9401 7.28599 46.4035 5.1409 43.2732 5.1409ZM63.4521 12.5695C63.4521 16.4266 60.8061 19.9981 56.4799 19.9981C52.1538 19.9981 49.5077 16.4308 49.5077 12.572C49.5077 8.71324 52.1546 5.1409 56.4799 5.1409C60.8052 5.1409 63.4521 8.71492 63.4521 12.572V12.5695ZM60.2086 12.5695C60.2086 9.51195 58.8709 7.45534 56.4799 7.45534C54.1175 7.45534 52.7807 9.51195 52.7807 12.5695C52.7807 15.5976 54.1175 17.6837 56.4799 17.6837C58.8709 17.6862 60.2086 15.6001 60.2086 12.572V12.5695ZM89.7128 5.1409C87.6072 5.1409 86.1562 6.22608 85.5302 8.22625H85.4731C84.9041 6.34067 83.4237 5.1409 81.0899 5.1409C79.0414 5.1409 77.7037 6.22608 77.1061 8.22625H77.0491V5.42905H74.0279V19.7167H77.133V11.1431C77.133 8.80086 77.9865 7.48651 79.9217 7.48651C81.768 7.48651 82.6819 8.68627 82.6819 11.3436V19.7167H85.787V11.1431C85.787 8.80086 86.6119 7.48651 88.5471 7.48651C90.4253 7.48651 91.3082 8.68627 91.3082 11.3436V19.7167H94.4132V10.4286C94.409 7.28599 92.8724 5.1409 89.7128 5.1409ZM106.535 5.42652H109.58V19.7167H106.535V16.7148H106.451C105.768 18.6863 104.117 20.0006 101.954 20.0006C98.084 20.0006 95.9784 16.5715 95.9784 12.572C95.9784 8.57253 98.1712 5.1409 101.953 5.1409C104.115 5.1409 105.766 6.4266 106.449 8.39813H106.533L106.535 5.42652ZM106.647 12.572C106.647 9.51448 105.221 7.45786 102.919 7.45786C100.617 7.45786 99.2479 9.51448 99.2479 12.572C99.2479 15.6001 100.642 17.6862 102.919 17.6862C105.226 17.6862 106.647 15.6001 106.647 12.572ZM111.683 0.00146484V19.7167H114.788V0.00146484H111.683ZM65.0223 19.7167H68.1274V7.74433H72.3621V5.42989H65.0223V19.7167Z" fill="#000000">
    </path>
</svg>
